<mxfile host="65bd71144e">
    <diagram id="nfEMyaBRWadcY8nH4b1t" name="Page-1">
        <mxGraphModel dx="816" dy="419" grid="1" gridSize="10" guides="1" tooltips="1" connect="1" arrows="1" fold="1" page="1" pageScale="1" pageWidth="850" pageHeight="1100" math="0" shadow="0">
            <root>
                <mxCell id="0"/>
                <mxCell id="1" parent="0"/>
            </root>
        </mxGraphModel>
    </diagram>
    <diagram id="Y6drgk0W-BeP6c97JX51" name="Page-2">
        <mxGraphModel dx="816" dy="419" grid="1" gridSize="10" guides="1" tooltips="1" connect="1" arrows="1" fold="1" page="1" pageScale="1" pageWidth="850" pageHeight="1100" math="0" shadow="0">
            <root>
                <mxCell id="0"/>
                <mxCell id="1" parent="0"/>
                <mxCell id="h_njgj0ZpcMkrFgwLPQp-1" value="" style="swimlane;startSize=0;shadow=1;strokeColor=light-dark(#000000,#000000);" vertex="1" parent="1">
                    <mxGeometry x="410" y="100" width="200" height="200" as="geometry">
                        <mxRectangle x="320" y="120" width="50" height="40" as="alternateBounds"/>
                    </mxGeometry>
                </mxCell>
            </root>
        </mxGraphModel>
    </diagram>
</mxfile>